<svg xmlns="http://www.w3.org/2000/svg" viewBox="0 0 126.63 37.32">
  <defs>
    <style>
      .a {
        fill: #fff;
      }

      .b {
        fill: #ec9871;
      }
    </style>
  </defs>
  <polygon class="a" points="15 28.9 15 32.87 0 32.87 0 12.87 4.59 12.87 4.59 28.9 15 28.9" />
  <rect class="a" x="18" y="11.87" width="5" height="3.88" />
  <rect class="a" x="18.12" y="17.46" width="4.76" height="15.41" />
  <polygon class="a" points="42 17.87 38.08 27.04 35.59 32.87 31.4 32.87 28 24.9 25 17.87 29.88 17.87 33.52 27.84 37.21 17.87 42 17.87" />
  <path class="a" d="M107.29,22.63v10h-4.51V24.07a3.4,3.4,0,0,0-.69-2.32,2.46,2.46,0,0,0-2-.79,2.57,2.57,0,0,0-2,.79,3.34,3.34,0,0,0-.73,2.32v8.57H92.9V24.07a3.45,3.45,0,0,0-.68-2.32,2.49,2.49,0,0,0-2-.79,2.59,2.59,0,0,0-2,.79,3.34,3.34,0,0,0-.72,2.32v8.57H83V17.25h4.51v2.2a9.28,9.28,0,0,1,.84-.93,5.68,5.68,0,0,1,1-.81,5.07,5.07,0,0,1,1.26-.55,5.48,5.48,0,0,1,1.56-.2,5.34,5.34,0,0,1,2.71.64,4.31,4.31,0,0,1,1.77,1.82A7.26,7.26,0,0,1,99,17.58a6.52,6.52,0,0,1,2.91-.62,5.28,5.28,0,0,1,4,1.45A5.78,5.78,0,0,1,107.29,22.63Z" />
  <path class="a" d="M126.35,17.24,120.23,33a11.79,11.79,0,0,1-1,2,5.24,5.24,0,0,1-1.11,1.33,3.79,3.79,0,0,1-1.38.75,6.31,6.31,0,0,1-1.78.23,7.73,7.73,0,0,1-2.2-.29l-.52-.19a9.89,9.89,0,0,1-1.28-.59l1.28-2.68.22-.48a4.94,4.94,0,0,0,1,.43,3.14,3.14,0,0,0,1,.18,1.81,1.81,0,0,0,.94-.22,2,2,0,0,0,.64-.79l-3.73-9.24-2.51-6.21h4.78l3.63,10.49,3.47-10.49Z" />
  <path class="a" d="M79.19,22.17A7.68,7.68,0,0,0,78,19.85c-.08-.11-.17-.24-.26-.35a6.89,6.89,0,0,0-2.42-1.85,7.78,7.78,0,0,0-1.89-.57A7.32,7.32,0,0,0,71.9,17a7.63,7.63,0,0,0-7.29,4.91,8.42,8.42,0,0,0-.56,3.1V25a8,8,0,0,0,.62,3.23A7.55,7.55,0,0,0,69,32.4a9.25,9.25,0,0,0,3.3.58,8.25,8.25,0,0,0,1.11,0,8.73,8.73,0,0,0,2.66-.71,8.64,8.64,0,0,0,2.73-2.11l-.82-.7L76.26,27.9a7.07,7.07,0,0,1-1.84,1.21,6.7,6.7,0,0,1-1,.28,5.32,5.32,0,0,1-1,.09,4.16,4.16,0,0,1-2.54-.76,3.66,3.66,0,0,1-1.35-2.26H79.59c0-.21,0-.39,0-.54s0-.34,0-.55v-.06A11.15,11.15,0,0,0,79.19,22.17ZM68.46,23.73a4.39,4.39,0,0,1,1.14-2.38,3.1,3.1,0,0,1,2.3-.89,3.06,3.06,0,0,1,1.55.37,2.76,2.76,0,0,1,.74.54,4.15,4.15,0,0,1,1.06,2.36Z" />
  <path class="b" d="M56.15,0V17.32a9.06,9.06,0,0,0-9.15.36,8.7,8.7,0,0,0-2.81,2.94A8.33,8.33,0,0,0,47,31.82l.6.37a9,9,0,0,0,11.45-2.52q.27-.37.51-.78a8.31,8.31,0,0,0,1.1-4.12V10.56L62.1,12,65.24,15,68.4,12l0,0ZM51.88,28.82a4.07,4.07,0,1,1,4.2-4.06A4.13,4.13,0,0,1,51.88,28.82Z" />
</svg>